# xmcd CD database file
#
# Track frame offsets:
#	150
#	24333
#	44826
#	62976
#	85326
#	105829
#	130157
#	145816
#	179116
#
# Disc length: 2555 seconds
#
# Revision: 0
# Processed by: cddbd v1.5.2PL0 Copyright (c) Steve Scherf et al.
# Submitted via: CDex 1.70beta2
#
DISCID=7e09f909
DTITLE=Demetori - 闡提宗祀 ～ offering to the sukhavati
DYEAR=2008
DGENRE=東方アレンジ
TTITLE0=童祭　～ Innocent Treasures
TTITLE1=人形裁判　～ 人の形弄びし少女
TTITLE2=オリエンタルダークフライト
TTITLE3=天空のグリニッジ ～ Deep P Sky
TTITLE4=天狗が見ている　～ Eye of the Needles
TTITLE5=妖怪の山　～ Mysterious Mountain
TTITLE6=花の映る塚 彼岸の塚 ～ Unnamed Scenery
TTITLE7=亡き王女の為のセプテット ～ Ascending Into Naught
TTITLE8=彼岸の奴隷 ～ One Conclusion
EXTD=YEAR: 2008
EXTT0=
EXTT1=
EXTT2=
EXTT3=
EXTT4=
EXTT5=
EXTT6=
EXTT7=
EXTT8=
PLAYORDER=
